<mxfile host="app.diagrams.net" modified="2023-10-18T20:54:04.322Z" agent="Mozilla/5.0 (Windows NT 10.0; Win64; x64) AppleWebKit/537.36 (KHTML, like Gecko) Chrome/118.0.0.0 Safari/537.36 Edg/118.0.2088.46" etag="wYhGTqaDz81zRiYUKSEx" version="22.0.4" type="device">
  <diagram name="Página-1" id="FSJck72RWdbsdvlIvHmO">
    <mxGraphModel dx="1914" dy="1038" grid="1" gridSize="10" guides="1" tooltips="1" connect="1" arrows="1" fold="1" page="1" pageScale="1" pageWidth="827" pageHeight="1169" math="0" shadow="0">
      <root>
        <mxCell id="0" />
        <mxCell id="1" parent="0" />
        <mxCell id="KkmzzJO2LPp_vLwEJJ15-16" style="edgeStyle=orthogonalEdgeStyle;rounded=0;orthogonalLoop=1;jettySize=auto;html=1;" edge="1" parent="1" source="KkmzzJO2LPp_vLwEJJ15-1" target="KkmzzJO2LPp_vLwEJJ15-2">
          <mxGeometry relative="1" as="geometry">
            <Array as="points">
              <mxPoint x="120" y="488" />
            </Array>
          </mxGeometry>
        </mxCell>
        <mxCell id="KkmzzJO2LPp_vLwEJJ15-18" style="edgeStyle=orthogonalEdgeStyle;rounded=0;orthogonalLoop=1;jettySize=auto;html=1;entryX=0;entryY=0.5;entryDx=0;entryDy=0;" edge="1" parent="1" source="KkmzzJO2LPp_vLwEJJ15-1" target="KkmzzJO2LPp_vLwEJJ15-13">
          <mxGeometry relative="1" as="geometry" />
        </mxCell>
        <mxCell id="KkmzzJO2LPp_vLwEJJ15-19" style="edgeStyle=orthogonalEdgeStyle;rounded=0;orthogonalLoop=1;jettySize=auto;html=1;entryX=0;entryY=0.5;entryDx=0;entryDy=0;" edge="1" parent="1" source="KkmzzJO2LPp_vLwEJJ15-1" target="KkmzzJO2LPp_vLwEJJ15-12">
          <mxGeometry relative="1" as="geometry" />
        </mxCell>
        <mxCell id="KkmzzJO2LPp_vLwEJJ15-24" style="edgeStyle=orthogonalEdgeStyle;rounded=0;orthogonalLoop=1;jettySize=auto;html=1;entryX=0;entryY=0.5;entryDx=0;entryDy=0;" edge="1" parent="1" source="KkmzzJO2LPp_vLwEJJ15-1" target="KkmzzJO2LPp_vLwEJJ15-10">
          <mxGeometry relative="1" as="geometry" />
        </mxCell>
        <mxCell id="KkmzzJO2LPp_vLwEJJ15-1" value="&lt;font color=&quot;#000000&quot;&gt;Usuário&lt;/font&gt;" style="shape=umlActor;verticalLabelPosition=bottom;verticalAlign=top;html=1;fillColor=#FFFFFF;strokeColor=#000000;fontColor=#ffffff;gradientColor=#66B2FF;gradientDirection=radial;fontStyle=1;fontSize=16;" vertex="1" parent="1">
          <mxGeometry x="80" y="640" width="60" height="110" as="geometry" />
        </mxCell>
        <mxCell id="KkmzzJO2LPp_vLwEJJ15-2" value="&lt;b style=&quot;font-size: 16px;&quot;&gt;Cadastrar documentos&lt;br&gt;&lt;br&gt;&lt;/b&gt;" style="ellipse;whiteSpace=wrap;html=1;fillColor=#FFFFFF;strokeColor=#66B2FF;gradientColor=#66B2FF;gradientDirection=radial;" vertex="1" parent="1">
          <mxGeometry x="250" y="430" width="190" height="95" as="geometry" />
        </mxCell>
        <mxCell id="KkmzzJO2LPp_vLwEJJ15-4" value="&lt;b&gt;&lt;font style=&quot;font-size: 16px;&quot;&gt;Cadastrar Endereço&lt;/font&gt;&lt;/b&gt;" style="ellipse;whiteSpace=wrap;html=1;fillColor=#FFFFFF;strokeColor=#66B2FF;gradientColor=#66B2FF;gradientDirection=radial;align=center;" vertex="1" parent="1">
          <mxGeometry x="250" y="545" width="190" height="95" as="geometry" />
        </mxCell>
        <mxCell id="KkmzzJO2LPp_vLwEJJ15-10" value="&lt;b&gt;&lt;font style=&quot;font-size: 16px;&quot;&gt;Usufruir do campo&lt;/font&gt;&lt;/b&gt;" style="ellipse;whiteSpace=wrap;html=1;fillColor=#FFFFFF;strokeColor=#66B2FF;gradientColor=#66B2FF;gradientDirection=radial;" vertex="1" parent="1">
          <mxGeometry x="260" y="1000" width="190" height="95" as="geometry" />
        </mxCell>
        <mxCell id="KkmzzJO2LPp_vLwEJJ15-11" value="&lt;b&gt;&lt;font style=&quot;font-size: 16px;&quot;&gt;Pagar campo&lt;/font&gt;&lt;/b&gt;" style="ellipse;whiteSpace=wrap;html=1;fillColor=#FFFFFF;strokeColor=#66B2FF;gradientColor=#66B2FF;gradientDirection=radial;" vertex="1" parent="1">
          <mxGeometry x="260" y="885" width="190" height="95" as="geometry" />
        </mxCell>
        <mxCell id="KkmzzJO2LPp_vLwEJJ15-12" value="&lt;b&gt;&lt;font style=&quot;font-size: 16px;&quot;&gt;Requisitar Campo&lt;/font&gt;&lt;/b&gt;" style="ellipse;whiteSpace=wrap;html=1;fillColor=#FFFFFF;strokeColor=#66B2FF;gradientColor=#66B2FF;gradientDirection=radial;" vertex="1" parent="1">
          <mxGeometry x="260" y="770" width="190" height="95" as="geometry" />
        </mxCell>
        <mxCell id="KkmzzJO2LPp_vLwEJJ15-13" value="&lt;font size=&quot;1&quot;&gt;&lt;b style=&quot;font-size: 16px;&quot;&gt;Verificar campos&amp;nbsp;&lt;/b&gt;&lt;/font&gt;&lt;span style=&quot;font-size: 16px;&quot;&gt;&lt;b&gt;disponíveis&lt;/b&gt;&lt;/span&gt;" style="ellipse;whiteSpace=wrap;html=1;fillColor=#FFFFFF;strokeColor=#66B2FF;gradientColor=#66B2FF;gradientDirection=radial;" vertex="1" parent="1">
          <mxGeometry x="250" y="655" width="190" height="95" as="geometry" />
        </mxCell>
        <mxCell id="KkmzzJO2LPp_vLwEJJ15-17" style="edgeStyle=orthogonalEdgeStyle;rounded=0;orthogonalLoop=1;jettySize=auto;html=1;entryX=0.028;entryY=0.371;entryDx=0;entryDy=0;entryPerimeter=0;" edge="1" parent="1" source="KkmzzJO2LPp_vLwEJJ15-1" target="KkmzzJO2LPp_vLwEJJ15-4">
          <mxGeometry relative="1" as="geometry" />
        </mxCell>
        <mxCell id="KkmzzJO2LPp_vLwEJJ15-22" style="edgeStyle=orthogonalEdgeStyle;rounded=0;orthogonalLoop=1;jettySize=auto;html=1;entryX=0.001;entryY=0.621;entryDx=0;entryDy=0;entryPerimeter=0;" edge="1" parent="1" source="KkmzzJO2LPp_vLwEJJ15-1" target="KkmzzJO2LPp_vLwEJJ15-11">
          <mxGeometry relative="1" as="geometry" />
        </mxCell>
        <mxCell id="KkmzzJO2LPp_vLwEJJ15-39" style="edgeStyle=orthogonalEdgeStyle;rounded=0;orthogonalLoop=1;jettySize=auto;html=1;entryX=1;entryY=0.5;entryDx=0;entryDy=0;" edge="1" parent="1" source="KkmzzJO2LPp_vLwEJJ15-29" target="KkmzzJO2LPp_vLwEJJ15-30">
          <mxGeometry relative="1" as="geometry" />
        </mxCell>
        <mxCell id="KkmzzJO2LPp_vLwEJJ15-40" style="edgeStyle=orthogonalEdgeStyle;rounded=0;orthogonalLoop=1;jettySize=auto;html=1;entryX=1;entryY=0.5;entryDx=0;entryDy=0;" edge="1" parent="1" source="KkmzzJO2LPp_vLwEJJ15-29" target="KkmzzJO2LPp_vLwEJJ15-31">
          <mxGeometry relative="1" as="geometry" />
        </mxCell>
        <mxCell id="KkmzzJO2LPp_vLwEJJ15-41" style="edgeStyle=orthogonalEdgeStyle;rounded=0;orthogonalLoop=1;jettySize=auto;html=1;" edge="1" parent="1" source="KkmzzJO2LPp_vLwEJJ15-29" target="KkmzzJO2LPp_vLwEJJ15-35">
          <mxGeometry relative="1" as="geometry" />
        </mxCell>
        <mxCell id="KkmzzJO2LPp_vLwEJJ15-42" style="edgeStyle=orthogonalEdgeStyle;rounded=0;orthogonalLoop=1;jettySize=auto;html=1;entryX=1;entryY=0.5;entryDx=0;entryDy=0;" edge="1" parent="1" source="KkmzzJO2LPp_vLwEJJ15-29" target="KkmzzJO2LPp_vLwEJJ15-34">
          <mxGeometry relative="1" as="geometry" />
        </mxCell>
        <mxCell id="KkmzzJO2LPp_vLwEJJ15-43" style="edgeStyle=orthogonalEdgeStyle;rounded=0;orthogonalLoop=1;jettySize=auto;html=1;entryX=1;entryY=0.5;entryDx=0;entryDy=0;" edge="1" parent="1" source="KkmzzJO2LPp_vLwEJJ15-29" target="KkmzzJO2LPp_vLwEJJ15-33">
          <mxGeometry relative="1" as="geometry" />
        </mxCell>
        <mxCell id="KkmzzJO2LPp_vLwEJJ15-44" style="edgeStyle=orthogonalEdgeStyle;rounded=0;orthogonalLoop=1;jettySize=auto;html=1;entryX=1;entryY=0.5;entryDx=0;entryDy=0;" edge="1" parent="1" source="KkmzzJO2LPp_vLwEJJ15-29" target="KkmzzJO2LPp_vLwEJJ15-32">
          <mxGeometry relative="1" as="geometry" />
        </mxCell>
        <mxCell id="KkmzzJO2LPp_vLwEJJ15-29" value="&lt;font color=&quot;#000000&quot;&gt;Campo&lt;br&gt;&lt;br&gt;&lt;/font&gt;" style="shape=umlActor;verticalLabelPosition=bottom;verticalAlign=top;html=1;fillColor=#FFFFFF;strokeColor=#000000;fontColor=#ffffff;gradientColor=#99FF99;gradientDirection=radial;fontStyle=1;fontSize=16;" vertex="1" parent="1">
          <mxGeometry x="960" y="630" width="60" height="110" as="geometry" />
        </mxCell>
        <mxCell id="KkmzzJO2LPp_vLwEJJ15-30" value="&lt;b style=&quot;font-size: 16px;&quot;&gt;Cadastrar documentos&lt;br&gt;&lt;br&gt;&lt;/b&gt;" style="ellipse;whiteSpace=wrap;html=1;fillColor=#FFFFFF;strokeColor=#99FF99;gradientColor=#99FF99;gradientDirection=radial;" vertex="1" parent="1">
          <mxGeometry x="637" y="430" width="190" height="95" as="geometry" />
        </mxCell>
        <mxCell id="KkmzzJO2LPp_vLwEJJ15-31" value="&lt;b&gt;&lt;font style=&quot;font-size: 16px;&quot;&gt;Cadastrar Endereço do campo&lt;br&gt;&lt;/font&gt;&lt;/b&gt;" style="ellipse;whiteSpace=wrap;html=1;fillColor=#FFFFFF;strokeColor=#99FF99;gradientColor=#99FF99;gradientDirection=radial;align=center;" vertex="1" parent="1">
          <mxGeometry x="637" y="535" width="190" height="95" as="geometry" />
        </mxCell>
        <mxCell id="KkmzzJO2LPp_vLwEJJ15-32" value="&lt;span style=&quot;font-size: 16px;&quot;&gt;&lt;b&gt;Reagendar o campo já usado&lt;br&gt;&lt;/b&gt;&lt;/span&gt;" style="ellipse;whiteSpace=wrap;html=1;fillColor=#FFFFFF;strokeColor=#99FF99;gradientColor=#99FF99;gradientDirection=radial;" vertex="1" parent="1">
          <mxGeometry x="637" y="990" width="190" height="95" as="geometry" />
        </mxCell>
        <mxCell id="KkmzzJO2LPp_vLwEJJ15-33" value="&lt;b&gt;&lt;font style=&quot;font-size: 16px;&quot;&gt;Receber pelo campo&lt;/font&gt;&lt;/b&gt;" style="ellipse;whiteSpace=wrap;html=1;fillColor=#FFFFFF;strokeColor=#99FF99;gradientColor=#99FF99;gradientDirection=radial;" vertex="1" parent="1">
          <mxGeometry x="637" y="875" width="190" height="95" as="geometry" />
        </mxCell>
        <mxCell id="KkmzzJO2LPp_vLwEJJ15-34" value="&lt;b&gt;&lt;font style=&quot;font-size: 16px;&quot;&gt;Disponibilizar Campo&lt;/font&gt;&lt;/b&gt;" style="ellipse;whiteSpace=wrap;html=1;fillColor=#FFFFFF;strokeColor=#99FF99;gradientColor=#99FF99;gradientDirection=radial;" vertex="1" parent="1">
          <mxGeometry x="640" y="750" width="190" height="95" as="geometry" />
        </mxCell>
        <mxCell id="KkmzzJO2LPp_vLwEJJ15-35" value="&lt;b style=&quot;font-size: 16px;&quot;&gt;Colocar campos &lt;/b&gt;&lt;span style=&quot;font-size: 16px;&quot;&gt;&lt;b&gt;disponíveis&lt;/b&gt;&lt;/span&gt;" style="ellipse;whiteSpace=wrap;html=1;fillColor=#FFFFFF;strokeColor=#99FF99;gradientColor=#99FF99;gradientDirection=radial;" vertex="1" parent="1">
          <mxGeometry x="637" y="645" width="190" height="95" as="geometry" />
        </mxCell>
      </root>
    </mxGraphModel>
  </diagram>
</mxfile>
